<svg xmlns="http://www.w3.org/2000/svg" viewBox="0 0 180 252"><defs><style>.cls-1,.cls-2{fill:#fff;}.cls-1{stroke:#000;stroke-miterlimit:3;stroke-width:0.75px;}.cls-2,.cls-3{fill-rule:evenodd;}.cls-3{fill:#d11209;}.cls-4{fill:none;stroke:#d11209;stroke-linejoin:round;stroke-width:3.17px;}</style></defs><g id="Layer_2" data-name="Layer 2"><g id="Layer_1-2" data-name="Layer 1"><rect class="cls-1" x="0.38" y="0.38" width="179.25" height="251.25" rx="9"/><g id="svg2"><g id="Layer_1-2-2" data-name="Layer 1-2"><path id="path7" class="cls-2" d="M90.57,49.34V10.68h-39V49.34Z"/><path id="path9" class="cls-3" d="M51.49,49.34V10.68h-39V49.34Z"/><path id="path11" class="cls-2" d="M51.49,88V49.34h-39V88Z"/><path id="path13" class="cls-3" d="M90.57,88V49.34h-39V88Z"/><path id="path15" class="cls-2" d="M168.61,126.66V88h-39v38.66Z"/><path id="path17" class="cls-3" d="M129.57,126.66V88h-39v38.66Z"/><path id="path19" class="cls-2" d="M90.57,126.66V88h-39v38.66Z"/><path id="path21" class="cls-3" d="M51.49,126.66V88h-39v38.66Z"/><path id="path23" class="cls-2" d="M129.57,88V49.34h-39V88Z"/><path id="path25" class="cls-3" d="M168.61,88V49.34h-39V88Z"/><path id="path27" class="cls-2" d="M168.61,49.34V10.68h-39V49.34Z"/><path id="path29" class="cls-3" d="M129.57,49.34V10.68h-39V49.34Z"/><path id="path31" class="cls-2" d="M129.57,242.67V204h-39v38.68Z"/><path id="path33" class="cls-3" d="M168.61,242.67V204h-39v38.68Z"/><path id="path35" class="cls-2" d="M168.61,204V165.33h-39V204Z"/><path id="path37" class="cls-3" d="M129.57,204V165.33h-39V204Z"/><path id="path39" class="cls-2" d="M51.49,165.33V126.66h-39v38.67Z"/><path id="path41" class="cls-3" d="M90.57,165.33V126.66h-39v38.67Z"/><path id="path43" class="cls-2" d="M129.57,165.33V126.66h-39v38.67Z"/><path id="path45" class="cls-3" d="M168.61,165.33V126.66h-39v38.67Z"/><path id="path47" class="cls-2" d="M90.57,204V165.33h-39V204Z"/><path id="path49" class="cls-3" d="M51.49,204V165.33h-39V204Z"/><path id="path51" class="cls-2" d="M51.49,242.67V204h-39v38.68Z"/><path id="path53" class="cls-3" d="M90.57,242.67V204h-39v38.68Z"/><path id="path55" class="cls-3" d="M56.37,10.64,90.53,44.46,85.66,49.3,51.53,15.45l4.88-4.77Z"/><path id="path57" class="cls-2" d="M17.37,10.64,51.5,44.46,46.62,49.3,12.5,15.45l4.87-4.77"/><path id="path59" class="cls-3" d="M12.51,83.16,17.38,88,51.51,54.18l-4.88-4.84Z"/><path id="path61" class="cls-2" d="M85.65,49.34,51.52,83.16,56.4,88,90.56,54.18l-4.87-4.84"/><path id="path63" class="cls-3" d="M168.61,121.84l-4.87,4.82L129.61,92.82,134.49,88Z"/><path id="path65" class="cls-2" d="M95.4,88l34.17,33.84-4.88,4.82L90.56,92.82,95.44,88"/><path id="path67" class="cls-3" d="M56.37,88l34.16,33.84-4.87,4.82L51.53,92.82,56.41,88Z"/><path id="path69" class="cls-2" d="M17.37,88,51.5,121.84l-4.88,4.82L12.5,92.82,17.37,88"/><path id="path71" class="cls-3" d="M90.55,83.16,95.42,88l34.17-33.82-4.88-4.84Z"/><path id="path73" class="cls-2" d="M163.76,49.34,129.63,83.16,134.51,88l34.12-33.82-4.87-4.84"/><path id="path75" class="cls-3" d="M134.49,10.64l34.12,33.82-4.87,4.84L129.61,15.45l4.88-4.77Z"/><path id="path77" class="cls-2" d="M95.4,10.64l34.17,33.82-4.88,4.84L90.56,15.45l4.88-4.77"/><path id="path79" class="cls-3" d="M124.67,242.67,90.55,208.83,95.42,204l34.17,33.84-4.88,4.84Z"/><path id="path81" class="cls-2" d="M163.76,242.67l-34.13-33.84,4.88-4.84,34.12,33.84-4.87,4.84"/><path id="path83" class="cls-3" d="M168.61,170.17l-4.87-4.84-34.13,33.82,4.88,4.84Z"/><path id="path85" class="cls-2" d="M95.4,204l34.17-33.82-4.88-4.84L90.56,199.15,95.44,204"/><path id="path87" class="cls-3" d="M46.63,165.33,12.51,131.5l4.87-4.84,34.13,33.85-4.88,4.82Z"/><path id="path89" class="cls-2" d="M85.65,165.33,51.52,131.5l4.88-4.84,34.16,33.85-4.87,4.82"/><path id="path91" class="cls-3" d="M90.55,131.5l4.87-4.84,34.17,33.85-4.88,4.82Z"/><path id="path93" class="cls-2" d="M163.76,165.33,129.63,131.5l4.88-4.84,34.12,33.85-4.87,4.82"/><path id="path95" class="cls-3" d="M90.53,170.17l-4.87-4.84L51.53,199.15,56.41,204Z"/><path id="path97" class="cls-2" d="M17.37,204,51.5,170.17l-4.88-4.84L12.5,199.15,17.37,204"/><path id="path99" class="cls-3" d="M12.51,208.83,17.38,204l34.13,33.84-4.88,4.84Z"/><path id="path101" class="cls-2" d="M85.65,242.67,51.52,208.83,56.4,204l34.16,33.84-4.87,4.84"/><path id="path103" class="cls-3" d="M51.52,44.46,56.4,49.3,90.56,15.45l-4.87-4.77Z"/><path id="path105" class="cls-3" d="M51.56,30l19.5,19.33L90.56,30,71.06,10.68Z"/><path id="path107" class="cls-2" d="M46.63,10.64,12.51,44.46l4.87,4.84L51.51,15.45l-4.88-4.77"/><path id="path109" class="cls-2" d="M32,10.68,12.52,30,32,49.34,51.52,30,32,10.68"/><path id="path111" class="cls-3" d="M51.5,83.16,46.62,88,12.5,54.18l4.87-4.84Z"/><path id="path113" class="cls-3" d="M51.52,68.68,32,88,12.52,68.68,32,49.34Z"/><path id="path115" class="cls-2" d="M56.37,49.34,90.53,83.16,85.66,88,51.53,54.18l4.88-4.84"/><path id="path117" class="cls-2" d="M71.06,49.34l19.5,19.34L71.06,88,51.56,68.68l19.5-19.34"/><path id="path119" class="cls-3" d="M129.63,121.84l4.88,4.82,34.12-33.84L163.76,88Z"/><path id="path121" class="cls-3" d="M129.61,107.33l19.5,19.33,19.5-19.33L149.11,88Z"/><path id="path123" class="cls-2" d="M124.67,88,90.55,121.84l4.87,4.82,34.17-33.84L124.71,88"/><path id="path125" class="cls-2" d="M110.07,88l-19.5,19.33,19.5,19.33,19.5-19.33L110.07,88"/><path id="path127" class="cls-3" d="M51.52,121.84l4.88,4.82L90.56,92.82,85.69,88Z"/><path id="path129" class="cls-3" d="M51.56,107.33l19.5,19.33,19.5-19.33L71.06,88Z"/><path id="path131" class="cls-2" d="M46.63,88,12.51,121.84l4.87,4.82L51.51,92.82,46.63,88"/><path id="path133" class="cls-2" d="M32,88l-19.5,19.33L32,126.66l19.5-19.33L32,88"/><path id="path135" class="cls-3" d="M95.4,49.34l34.17,33.82L124.69,88,90.56,54.18l4.88-4.84Z"/><path id="path137" class="cls-3" d="M129.57,68.68,110.07,88,90.57,68.68l19.5-19.34Z"/><path id="path139" class="cls-2" d="M134.49,49.34l34.12,33.82L163.74,88,129.61,54.18l4.88-4.84"/><path id="path141" class="cls-2" d="M149.11,49.34l19.5,19.34L149.11,88l-19.5-19.32,19.5-19.34"/><path id="path143" class="cls-3" d="M129.63,44.46l4.88,4.84,34.12-33.85-4.87-4.77Z"/><path id="path145" class="cls-3" d="M129.61,30l19.5,19.33L168.61,30l-19.5-19.33Z"/><path id="path147" class="cls-2" d="M124.67,10.64,90.55,44.46l4.87,4.84,34.17-33.85-4.88-4.77"/><path id="path149" class="cls-2" d="M110.07,10.68,90.57,30l19.5,19.33L129.57,30l-19.5-19.33"/><path id="path151" class="cls-3" d="M95.4,242.67l34.17-33.84L124.69,204,90.56,237.83l4.88,4.84Z"/><path id="path153" class="cls-3" d="M129.57,223.32,110.07,204l-19.5,19.33,19.5,19.35Z"/><path id="path155" class="cls-2" d="M134.49,242.67l34.12-33.84L163.74,204l-34.13,33.84,4.88,4.84"/><path id="path157" class="cls-2" d="M149.11,242.67l19.5-19.35L149.11,204l-19.5,19.33,19.5,19.35"/><path id="path159" class="cls-3" d="M129.61,184.67l19.5-19.34,19.5,19.34L149.11,204Z"/><path id="path161" class="cls-2" d="M124.67,204,90.55,170.17l4.87-4.84,34.17,33.82L124.71,204"/><path id="path163" class="cls-2" d="M110.07,204l-19.5-19.32,19.5-19.34,19.5,19.34L110.07,204"/><path id="path165" class="cls-3" d="M17.37,165.33,51.5,131.5l-4.88-4.84L12.5,160.51l4.87,4.82Z"/><path id="path167" class="cls-3" d="M51.52,146,32,126.66,12.52,146,32,165.33Z"/><path id="path169" class="cls-2" d="M56.37,165.33,90.53,131.5l-4.87-4.84L51.53,160.51l4.88,4.82"/><path id="path171" class="cls-2" d="M71.06,165.33,90.56,146l-19.5-19.34L51.56,146l19.5,19.33"/><path id="path173" class="cls-3" d="M95.4,165.33l34.17-33.83-4.88-4.84L90.56,160.51l4.88,4.82Z"/><path id="path175" class="cls-3" d="M129.61,146l-19.54-19.32L90.57,146l19.5,19.33Z"/><path id="path177" class="cls-2" d="M134.49,165.33l34.12-33.83-4.87-4.84-34.13,33.85,4.88,4.82"/><path id="path179" class="cls-2" d="M149.13,165.31,168.63,146l-19.52-19.32L129.61,146l19.5,19.33"/><path id="path181" class="cls-3" d="M51.52,170.17l4.88-4.84,34.16,33.82L85.69,204Z"/><path id="path183" class="cls-3" d="M51.56,184.67l19.5-19.34,19.5,19.34L71.06,204Z"/><path id="path185" class="cls-2" d="M46.63,204,12.51,170.17l4.87-4.84,34.13,33.82L46.63,204"/><path id="path187" class="cls-2" d="M32,204l-19.5-19.32L32,165.33l19.5,19.34L32,204"/><path id="path189" class="cls-3" d="M51.5,208.83,46.62,204,12.5,237.83l4.87,4.84Z"/><path id="path191" class="cls-3" d="M51.52,223.32,32,204l-19.5,19.33L32,242.67Z"/><path id="path193" class="cls-2" d="M56.37,242.67l34.16-33.84L85.66,204,51.53,237.83l4.88,4.84"/><path id="path195" class="cls-2" d="M71.06,242.67l19.5-19.35L71.06,204l-19.5,19.33,19.5,19.35"/><path id="path197" class="cls-2" d="M80.78,39.66V19.75H61.28V39.66Z"/><path id="path199" class="cls-3" d="M41.75,39.66V19.75H22.25V39.66Z"/><path id="path201" class="cls-3" d="M71.06,22.75,63.74,30l7.32,7.23L78.37,30l-7.31-7.26"/><path id="path203" class="cls-2" d="M32,22.75,24.71,30,32,37.24,39.34,30,32,22.75"/><path id="path205" class="cls-2" d="M41.75,78.3V58.4H22.25V78.3Z"/><path id="path207" class="cls-3" d="M80.78,78.3V58.4H61.28V78.3Z"/><path id="path209" class="cls-3" d="M32,61.42l7.32,7.26L32,75.91l-7.31-7.23L32,61.42"/><path id="path211" class="cls-2" d="M71.06,61.42l7.31,7.26-7.31,7.23-7.32-7.23,7.32-7.26"/><path id="path213" class="cls-2" d="M158.86,117V97.1h-19.5V117Z"/><path id="path215" class="cls-3" d="M119.82,117V97.1h-19.5V117Z"/><path id="path217" class="cls-3" d="M149.11,100.08l-7.32,7.25,7.32,7.26,7.31-7.26-7.31-7.25"/><path id="path219" class="cls-2" d="M110.07,100.08l-7.31,7.25,7.31,7.26,7.32-7.26-7.32-7.25"/><path id="path221" class="cls-2" d="M80.78,117V97.1H61.28V117Z"/><path id="path223" class="cls-3" d="M41.75,117V97.1H22.25V117Z"/><path id="path225" class="cls-3" d="M71.06,100.08l-7.32,7.25,7.32,7.26,7.31-7.26-7.31-7.25"/><path id="path227" class="cls-2" d="M32,100.08l-7.31,7.25L32,114.59l7.32-7.26L32,100.08"/><path id="path229" class="cls-2" d="M119.82,78.3V58.4h-19.5V78.3Z"/><path id="path231" class="cls-3" d="M158.86,78.3V58.4h-19.5V78.3Z"/><path id="path233" class="cls-3" d="M110.07,61.42l7.32,7.26-7.32,7.23-7.31-7.23,7.31-7.26"/><path id="path235" class="cls-2" d="M149.11,61.42l7.31,7.26-7.31,7.23-7.32-7.23,7.32-7.26"/><path id="path237" class="cls-2" d="M158.86,39.66V19.75h-19.5V39.66Z"/><path id="path239" class="cls-3" d="M119.82,39.66V19.75h-19.5V39.66Z"/><path id="path241" class="cls-3" d="M149.11,22.75,141.79,30l7.32,7.23L156.42,30l-7.31-7.26"/><path id="path243" class="cls-2" d="M110.07,22.75,102.76,30l7.31,7.23L117.39,30l-7.32-7.26"/><path id="path245" class="cls-2" d="M119.82,233.55v-19.9h-19.5v19.9Z"/><path id="path247" class="cls-3" d="M158.86,233.55v-19.9h-19.5v19.9Z"/><path id="path249" class="cls-3" d="M110.07,230.58l7.32-7.26-7.32-7.23-7.31,7.23,7.31,7.26"/><path id="path251" class="cls-2" d="M149.11,230.58l7.31-7.26-7.31-7.23-7.32,7.23,7.32,7.26"/><path id="path253" class="cls-3" d="M119.82,194.94V175h-19.5v19.9Z"/><path id="path255" class="cls-2" d="M110.07,191.91l-7.31-7.24,7.31-7.26,7.32,7.26-7.32,7.24"/><path id="path257" class="cls-2" d="M41.75,156.26v-19.9H22.25v19.9Z"/><path id="path259" class="cls-3" d="M80.78,156.26v-19.9H61.28v19.9Z"/><path id="path261" class="cls-3" d="M32,153.25,39.34,146,32,138.74,24.71,146,32,153.25"/><path id="path263" class="cls-2" d="M71.06,153.25,78.37,146l-7.31-7.26L63.74,146l7.32,7.25"/><path id="path265" class="cls-2" d="M119.82,156.26v-19.9h-19.5v19.9Z"/><path id="path267" class="cls-3" d="M158.86,156.26v-19.9h-19.5v19.9Z"/><path id="path269" class="cls-3" d="M110.07,153.25l7.32-7.25-7.32-7.26L102.76,146l7.31,7.25"/><path id="path271" class="cls-2" d="M149.11,153.25l7.31-7.25-7.31-7.26L141.79,146l7.32,7.25"/><path id="path273" class="cls-2" d="M80.78,194.94V175H61.28v19.9Z"/><path id="path275" class="cls-3" d="M41.75,194.94V175H22.25v19.9Z"/><path id="path277" class="cls-3" d="M71.06,191.91l-7.32-7.24,7.32-7.26,7.31,7.26-7.31,7.24"/><path id="path279" class="cls-2" d="M32,191.91l-7.31-7.24L32,177.41l7.32,7.26L32,191.91"/><path id="path281" class="cls-2" d="M41.75,233.55v-19.9H22.25v19.9Z"/><path id="path283" class="cls-3" d="M80.78,233.55v-19.9H61.28v19.9Z"/><path id="path285" class="cls-3" d="M32,230.58l7.32-7.26L32,216.09l-7.31,7.23L32,230.58"/><path id="path287" class="cls-2" d="M71.06,230.58l7.31-7.26-7.31-7.23-7.32,7.23,7.32,7.26"/><path id="path289" class="cls-3" d="M129.63,170.17l4.88-4.84,34.12,33.82L163.76,204Z"/><path id="path291" class="cls-2" d="M158.86,194.94V175h-19.5v19.9Z"/><path id="path293" class="cls-3" d="M149.11,191.91l-7.32-7.24,7.32-7.26,7.31,7.26-7.31,7.24"/><path id="path295" class="cls-4" d="M15.13,5.76H164.87c4.59,0,8.32,3.17,8.32,7.08V239.16c0,3.91-3.73,7.08-8.32,7.08H15.13c-4.59,0-8.32-3.17-8.32-7.08V12.84C6.81,8.93,10.54,5.76,15.13,5.76Z"/></g></g></g></g></svg>